<?xml version="1.0" encoding="utf-8"?>
<!-- Generator: Adobe Illustrator 16.0.0, SVG Export Plug-In . SVG Version: 6.00 Build 0)  -->
<!DOCTYPE svg PUBLIC "-//W3C//DTD SVG 1.1//EN" "http://www.w3.org/Graphics/SVG/1.1/DTD/svg11.dtd">
<svg version="1.1" id="Layer_1" xmlns="http://www.w3.org/2000/svg" xmlns:xlink="http://www.w3.org/1999/xlink" x="0px" y="0px"
	 width="365.76px" height="95.167px" viewBox="0 0 365.76 95.167" enable-background="new 0 0 365.76 95.167" xml:space="preserve">
<g>
	<path fill="#A97D51" d="M112.338,24.153c3.372,0,8.964-0.458,14.683-0.215c-1.418-2.497-3.407-8.976-3.407-10.089
		c0-2.46-7.536-2.076-11.291-2.076c-3.756,0-11.292-0.385-11.292,2.076c0,1.113-1.988,7.594-3.407,10.091
		C103.354,23.692,108.961,24.152,112.338,24.153z"/>
	<path fill="#8B5F3D" d="M127.021,23.938c-5.718-0.244-11.311,0.214-14.683,0.215c-3.377,0-8.984-0.46-14.712-0.213
		c-9.791,0.423-19.941,2.911-19.941,13.285c0,12.15,7.039,18.174,10.724,20.498c-0.525-1.747-0.813-3.685-0.813-5.617
		c0-7.724,5.288-13.315,11.62-16.584c4.369-0.358,9.728-0.601,13.109-0.601l0,0c3.38,0,8.74,0.243,13.109,0.601
		c6.33,3.27,11.62,8.86,11.62,16.584c0,1.928-0.265,3.861-0.765,5.604c3.691-2.334,10.703-8.359,10.703-20.486
		C146.991,26.84,136.821,24.357,127.021,23.938z"/>
	<path fill="#010101" d="M95.404,61.87c-0.5-0.952-1.046-1.931-1.548-2.961c-0.984-2.016-1.804-4.225-1.804-6.804
		c0-6.451,2.016-12.684,7.699-12.684c12.683,0,6.231,12.684,6.231,12.684h6.342h6.341c0,0-6.416-12.684,6.233-12.684
		c5.682,0,7.699,6.233,7.699,12.684c0,2.579-0.82,4.788-1.804,6.804c-0.503,1.03-1.047,2.008-1.548,2.961
		c1.96-0.083,3.665-0.058,4.997,0.129c0.879-1.142,1.57-2.627,2.047-4.289c0.5-1.743,0.765-3.677,0.765-5.604
		c0-7.724-5.29-13.315-11.62-16.584c-4.369-0.359-9.728-0.602-13.109-0.602s-8.74,0.243-13.109,0.602
		c-6.332,3.269-11.62,8.86-11.62,16.584c0,1.932,0.289,3.871,0.813,5.617c0.497,1.65,1.206,3.127,2.084,4.265
		C91.812,61.812,93.485,61.788,95.404,61.87z"/>
	<path fill="#FFFFFF" d="M112.324,63.534c0.809,0,2.715-0.233,5.128-0.529c4.298-0.526,8.423-0.992,11.792-1.135
		c0.501-0.953,1.045-1.931,1.549-2.961c0.984-2.016,1.804-4.225,1.804-6.804c0-6.452-2.017-12.684-7.699-12.684
		c-12.648,0-6.232,12.684-6.232,12.684h-6.342h-6.342c0,0,6.452-12.684-6.231-12.684c-5.683,0-7.699,6.232-7.699,12.684
		c0,2.579,0.82,4.788,1.804,6.804c0.502,1.03,1.047,2.008,1.548,2.961c3.37,0.144,7.495,0.609,11.792,1.135
		C109.609,63.301,111.515,63.534,112.324,63.534z"/>
	<path fill="#EC2227" d="M136.061,63.772c-0.459-0.406-1.46-0.633-2.792-0.733c-1.292-0.098-2.897-0.075-4.625,0.017
		c-3.741,0.199-8.06,0.728-11.053,1.094c-2.452,0.3-4.388,0.537-5.268,0.537s-2.816-0.237-5.268-0.537
		c-2.992-0.367-7.312-0.895-11.052-1.094c-1.691-0.09-3.262-0.114-4.539-0.023c-1.375,0.097-2.409,0.326-2.879,0.741
		c-0.154,0.137-0.175,0.249-0.175,0.338c0,1.333,0.902,2.384,1.996,3.167c0.051,0.026,0.098,0.059,0.139,0.098
		c1.075,0.738,2.297,1.224,3.025,1.475c0.383,0.132,0.633,0.2,0.645,0.203c0.308,0.081,0.491,0.396,0.41,0.704
		c-0.082,0.308-0.398,0.492-0.705,0.41c-0.05-0.013-0.307-0.083-0.692-0.214c-0.582-0.198-1.457-0.536-2.36-1.032
		c0.26,1.038,0.866,2.05,1.713,3.026c0.839,0.966,1.916,1.896,3.134,2.776c5.938,4.287,15.229,7.398,16.608,7.846
		c1.38-0.448,10.669-3.56,16.607-7.847c1.219-0.88,2.296-1.81,3.135-2.775c0.848-0.976,1.454-1.989,1.713-3.026
		c-0.904,0.497-1.779,0.834-2.361,1.032c-0.383,0.131-0.641,0.201-0.691,0.214c-0.307,0.082-0.623-0.102-0.704-0.41
		c-0.082-0.307,0.101-0.622,0.409-0.704c0.012-0.003,0.26-0.072,0.644-0.204c0.731-0.252,1.962-0.743,3.039-1.486
		c0.033-0.029,0.069-0.055,0.108-0.075c1.101-0.785,2.012-1.839,2.012-3.177C136.236,64.021,136.215,63.91,136.061,63.772z"/>
	<path fill="#BE202E" d="M136.825,62.91c-0.513-0.454-1.402-0.746-2.584-0.911c-1.331-0.187-3.036-0.212-4.997-0.129
		c-3.369,0.144-7.494,0.609-11.792,1.135c-2.413,0.295-4.319,0.529-5.128,0.529c-0.81,0-2.715-0.233-5.128-0.529
		c-4.297-0.526-8.422-0.991-11.792-1.135c-1.918-0.082-3.592-0.059-4.911,0.117c-1.224,0.163-2.144,0.457-2.67,0.922
		c-0.369,0.328-0.564,0.743-0.564,1.201c0,1.723,1.053,3.033,2.323,3.987c0.096,1.691,0.989,3.309,2.367,4.819
		c0.957,1.049,2.148,2.047,3.471,2.982c6.486,4.579,16.123,7.636,16.732,7.826c0.055,0.018,0.113,0.026,0.172,0.026
		c0.058,0,0.116-0.009,0.172-0.026c0.608-0.19,10.246-3.248,16.731-7.826c1.22-0.861,2.327-1.775,3.243-2.735
		c1.508-1.58,2.494-3.282,2.596-5.066c1.27-0.954,2.324-2.264,2.324-3.987C137.389,63.652,137.194,63.237,136.825,62.91z
		 M134.224,67.288c-0.038,0.021-0.075,0.046-0.107,0.075c-1.077,0.744-2.308,1.234-3.039,1.486
		c-0.384,0.132-0.632,0.201-0.644,0.204c-0.308,0.082-0.492,0.397-0.41,0.704c0.082,0.308,0.397,0.492,0.705,0.41
		c0.049-0.013,0.307-0.083,0.691-0.214c0.582-0.197,1.457-0.535,2.361-1.032c-0.261,1.038-0.866,2.051-1.714,3.026
		c-0.84,0.966-1.916,1.895-3.136,2.775c-5.937,4.287-15.227,7.398-16.606,7.847c-1.379-0.448-10.67-3.559-16.608-7.846
		c-1.219-0.88-2.295-1.81-3.134-2.776c-0.848-0.976-1.454-1.989-1.714-3.026c0.905,0.496,1.779,0.834,2.361,1.032
		c0.385,0.131,0.642,0.201,0.692,0.214c0.307,0.083,0.623-0.102,0.705-0.41c0.082-0.308-0.102-0.623-0.41-0.704
		c-0.011-0.003-0.26-0.072-0.644-0.203c-0.728-0.251-1.95-0.736-3.025-1.475c-0.042-0.039-0.088-0.072-0.14-0.098
		c-1.093-0.783-1.995-1.833-1.995-3.167c0-0.09,0.021-0.201,0.175-0.338c0.47-0.415,1.503-0.644,2.878-0.741
		c1.277-0.09,2.849-0.067,4.539,0.023c3.74,0.199,8.06,0.728,11.052,1.094c2.452,0.3,4.389,0.537,5.268,0.537
		s2.816-0.237,5.268-0.537c2.993-0.366,7.312-0.895,11.052-1.094c1.729-0.092,3.334-0.114,4.625-0.017
		c1.332,0.101,2.332,0.327,2.792,0.733c0.154,0.137,0.175,0.249,0.175,0.338C136.236,65.449,135.325,66.503,134.224,67.288z"/>
	<path fill="#FBB041" d="M112.324,57.441c1.812,0,6.341-5.336,6.341-5.336h-12.684C105.982,52.105,110.512,57.441,112.324,57.441z"
		/>
	<circle fill="#010101" cx="125.277" cy="47.933" r="1.921"/>
	<circle fill="#010101" cx="99.375" cy="47.933" r="1.921"/>
</g>
<g display="none">
	<path display="inline" fill="#A97C50" d="M123.521,21.817c0-2.555-7.823-2.155-11.722-2.155s-11.722-0.399-11.722,2.155
		c0,1.156-2.065,7.884-3.538,10.476c5.947-0.257,11.768,0.22,15.274,0.222c3.501-0.001,9.308-0.477,15.244-0.223
		C125.586,29.699,123.521,22.972,123.521,21.817z"/>
	<g display="inline">
		<circle fill="#1A1A1A" cx="125.247" cy="57.203" r="1.994"/>
		<circle fill="#1A1A1A" cx="98.355" cy="57.203" r="1.994"/>
		<path d="M125.409,44.316c-4.535-0.373-10.1-0.625-13.609-0.625s-9.074,0.252-13.609,0.625
			c-6.572,3.394-12.063,9.199-12.063,17.218c0,2.005,0.299,4.018,0.845,5.831c0.797,2.65,0.909,5.438,8.494,6.944
			c-0.691-1.826-1.845-3.674-2.84-5.713c-1.021-2.093-1.873-4.386-1.873-7.063c0-6.699,2.094-13.169,7.993-13.169
			c13.167,0,6.47,13.169,6.47,13.169s4.703,5.539,6.584,5.539s6.584-5.539,6.584-5.539s-6.661-13.169,6.47-13.169
			c5.9,0,7.993,6.471,7.993,13.169c0,2.676-0.852,4.97-1.873,7.063c-0.995,2.04-2.149,3.889-2.841,5.716
			c7.636-1.507,7.784-4.303,8.547-6.961c0.519-1.81,0.793-3.817,0.793-5.817C137.473,53.515,131.981,47.71,125.409,44.316z"/>
		<path fill="#FFFFFF" d="M132.847,61.535c0-6.699-2.093-13.169-7.993-13.169c-13.131,0-6.47,13.169-6.47,13.169
			s-4.703,5.539-6.584,5.539s-6.584-5.539-6.584-5.539s6.697-13.169-6.47-13.169c-5.899,0-7.993,6.471-7.993,13.169
			c0,2.676,0.852,4.97,1.873,7.063c0.995,2.039,2.148,3.887,2.84,5.713c3.54,0.703,8.706,1.127,16.334,1.127
			c7.61,0,12.781-0.423,16.333-1.125c0.691-1.827,1.846-3.676,2.841-5.716C131.995,66.504,132.847,64.211,132.847,61.535z
			 M98.355,59.197c-1.102,0-1.994-0.893-1.994-1.994c0-1.102,0.893-1.994,1.994-1.994s1.994,0.893,1.994,1.994
			C100.35,58.304,99.457,59.197,98.355,59.197z M125.247,59.197c-1.102,0-1.994-0.893-1.994-1.994c0-1.102,0.893-1.994,1.994-1.994
			s1.994,0.893,1.994,1.994C127.241,58.304,126.349,59.197,125.247,59.197z"/>
	</g>
	<path display="inline" fill="#FBB040" d="M111.8,67.074c1.881,0,6.584-5.539,6.584-5.539H111.8h-6.584
		C105.216,61.535,109.919,67.074,111.8,67.074z"/>
	<circle display="inline" cx="125.247" cy="57.203" r="1.994"/>
	<circle display="inline" cx="98.355" cy="57.203" r="1.994"/>
	<path display="inline" fill="#8B5E3C" d="M111.8,43.692c3.51,0,9.074,0.252,13.609,0.625c6.572,3.394,12.063,9.199,12.063,17.218
		c0,2-0.274,4.008-0.793,5.817c3.831-2.422,11.11-8.677,11.11-21.267c0-10.782-10.558-13.359-20.731-13.794
		c-5.937-0.253-11.743,0.222-15.244,0.223c-3.507-0.001-9.327-0.479-15.274-0.222c-10.164,0.438-20.701,3.021-20.701,13.792
		c0,12.613,7.307,18.868,11.133,21.281c-0.546-1.813-0.845-3.826-0.845-5.831c0-8.02,5.491-13.824,12.063-17.218
		C102.726,43.944,108.29,43.692,111.8,43.692"/>
</g>
<g>
	<path d="M66.845,73.468H48.634L29.86,37.257h-0.316c0.445,5.695,0.668,10.043,0.668,13.043v23.168H17.907V22.07h18.141
		l18.703,35.719h0.211c-0.328-5.18-0.492-9.339-0.492-12.48V22.07h12.375V73.468z"/>
	<path d="M169.855,54.765v18.703h-13.887V22.07h16.84c13.969,0,20.953,5.063,20.953,15.188c0,5.954-2.906,10.559-8.719,13.816
		l14.977,22.395h-15.75l-10.898-18.703H169.855z M169.855,44.324h2.602c4.852,0,7.277-2.145,7.277-6.434
		c0-3.539-2.379-5.309-7.137-5.309h-2.742V44.324z"/>
	<path d="M209.016,73.468V22.07h13.887v40.184h19.793v11.215H209.016z"/>
	<path d="M293.941,22.07v30.938c0,6.727-1.904,11.936-5.713,15.627s-9.299,5.537-16.471,5.537c-7.008,0-12.393-1.793-16.154-5.379
		s-5.643-8.742-5.643-15.469V22.07h13.957v30.164c0,3.633,0.68,6.27,2.039,7.91c1.359,1.641,3.363,2.461,6.012,2.461
		c2.836,0,4.893-0.814,6.17-2.443c1.277-1.629,1.916-4.294,1.916-7.998V22.07H293.941z"/>
	<path d="M325.69,43.375h22.184v27.703c-6.023,2.063-12.645,3.094-19.863,3.094c-7.922,0-14.045-2.297-18.369-6.891
		c-4.324-4.593-6.486-11.145-6.486-19.652c0-8.297,2.367-14.753,7.102-19.371c4.734-4.617,11.367-6.926,19.898-6.926
		c3.234,0,6.287,0.305,9.158,0.914c2.871,0.61,5.373,1.383,7.506,2.32l-4.395,10.898c-3.703-1.828-7.77-2.742-12.199-2.742
		c-4.055,0-7.189,1.318-9.404,3.955s-3.322,6.404-3.322,11.303c0,4.805,1.002,8.467,3.006,10.986
		c2.004,2.52,4.893,3.779,8.666,3.779c2.063,0,3.961-0.199,5.695-0.598v-8.051h-9.176V43.375z"/>
</g>
</svg>
